<svg width="27" height="25" viewBox="0 0 27 25" fill="none" xmlns="http://www.w3.org/2000/svg">
<path d="M18.6294 7.64825H6.41206C6.07447 7.64825 5.80469 7.91783 5.80469 8.25462C5.80469 8.62526 6.07471 8.86099 6.41206 8.86099H18.5957C18.9333 8.86099 19.203 8.59141 19.203 8.25462C19.2369 7.88422 18.9669 7.64825 18.6296 7.64825H18.6294Z" fill="#F47220"/>
<path d="M18.6294 11.8936H6.41206C6.07447 11.8936 5.80469 12.1632 5.80469 12.5C5.80469 12.837 6.07471 13.1063 6.41206 13.1063H18.5957C18.9333 13.1063 19.203 12.8368 19.203 12.5C19.2369 12.1629 18.9669 11.8936 18.6296 11.8936H18.6294Z" fill="#F47220"/>
<path d="M18.6294 16.139H6.41206C6.07447 16.139 5.80469 16.4086 5.80469 16.7454C5.80469 17.116 6.07471 17.3518 6.41206 17.3518H18.5957C18.9333 17.3518 19.203 17.0822 19.203 16.7454C19.2369 16.4086 18.9669 16.139 18.6296 16.139H18.6294Z" fill="#F47220"/>
<path d="M23.1527 17.6889C22.7814 17.4868 22.3765 17.5878 22.1741 17.9585C20.1829 21.4289 16.5043 23.5853 12.5217 23.5853C6.41303 23.5853 1.41809 18.5987 1.41809 12.5001C1.41809 6.40154 6.41297 1.41495 12.5217 1.41495C16.4367 1.41495 19.9804 3.43669 22.0391 6.77217C22.2415 7.1092 22.6804 7.21025 23.0177 7.00814C23.3553 6.80601 23.4565 6.3679 23.2541 6.03114C20.9928 2.25753 16.9766 2.96295e-08 12.5217 2.96295e-08C5.60303 -0.000470055 0 5.59271 0 12.4997C0 19.4067 5.60249 25 12.5211 25C17.0098 25 21.1947 22.5741 23.4222 18.6656C23.591 18.3286 23.4898 17.8907 23.1522 17.6884L23.1527 17.6889Z" fill="#F47220"/>
<path d="M26.2922 11.8262H25.0435C24.9759 11.2198 24.9086 10.5796 24.7735 10.0069C24.6722 9.63623 24.301 9.40051 23.9297 9.46772C23.5585 9.53518 23.3224 9.93942 23.3897 10.3101C23.5246 10.8154 23.5585 11.3209 23.626 11.8601H22.1749C21.8037 11.8601 21.5 12.1633 21.5 12.5339C21.5 12.9045 21.8037 13.2077 22.1749 13.2077H23.66C23.6263 13.7469 23.5587 14.2521 23.4912 14.7577C23.4236 15.1284 23.66 15.5326 24.0649 15.6001H24.1998C24.5374 15.6001 24.8072 15.3641 24.9086 14.9937C25.0435 14.3873 25.0774 13.7807 25.1111 13.1744L26.3261 13.1739C26.6974 13.1739 27.001 12.8707 27.001 12.5001C27.001 12.1295 26.6634 11.8263 26.2922 11.8263L26.2922 11.8262Z" fill="#F47220"/>
</svg>
